<svg stroke-width="0" width="16" height="16" viewBox="0 0 16 16" fill="#00A651" class="_1vU7T" stroke="currentColor" stroke-linecap="round" xmlns="http://www.w3.org/2000/svg" xmlns:xlink="http://www.w3.org/1999/xlink"><g fill="none" fill-rule="evenodd"><rect width="16" height="16"/><path stroke="#00A651" stroke-linecap="round" stroke-width="2" d="M4,15 L4,8 M4,2 L4,2 C5.1045695,2 6,2.8954305 6,4 L6,6 C6,7.1045695 5.1045695,8 4,8 L4,8 C2.8954305,8 2,7.1045695 2,6 L2,4 C2,2.8954305 2.8954305,2 4,2 Z"/><path stroke="#00A651" stroke-linecap="round" stroke-width="2" d="M11,15 L11,2 M8,2 L8,5 C8,6.65685425 9.34314575,8 11,8 L11,8 C12.6568542,8 14,6.65685425 14,5 L14,2"/></g></svg>